<svg width="135" height="38" viewBox="0 0 135 38" fill="none" xmlns="http://www.w3.org/2000/svg">
<path d="M10.1515 31.3544C8.75367 31.3544 7.4543 31.0984 6.25336 30.5866C5.07211 30.0747 4.04836 29.3659 3.18211 28.4603C2.33555 27.535 1.71539 26.462 1.32164 25.2414L4.65867 23.7944C5.19023 25.0544 5.95805 26.0486 6.96211 26.777C7.96617 27.4858 9.0982 27.8402 10.3582 27.8402C11.067 27.8402 11.6773 27.7319 12.1891 27.5153C12.7207 27.2791 13.1243 26.9641 13.3999 26.5703C13.6952 26.1766 13.8429 25.7041 13.8429 25.1528C13.8429 24.5031 13.646 23.9716 13.2523 23.5581C12.8782 23.125 12.3073 22.7903 11.5395 22.5541L7.31648 21.1956C5.60367 20.6641 4.31414 19.8667 3.44789 18.8036C2.58164 17.7405 2.14852 16.4903 2.14852 15.0531C2.14852 13.7931 2.45367 12.6808 3.06398 11.7161C3.69398 10.7514 4.56023 10.0033 5.66273 9.47172C6.78492 8.92047 8.06461 8.64484 9.5018 8.64484C10.8209 8.64484 12.0316 8.88109 13.1341 9.35359C14.2366 9.80641 15.1816 10.4462 15.9691 11.2731C16.7763 12.0803 17.3768 13.0352 17.7705 14.1377L14.463 15.6142C14.0299 14.5117 13.3802 13.6652 12.514 13.0745C11.6477 12.4642 10.6437 12.1591 9.5018 12.1591C8.83242 12.1591 8.2418 12.2772 7.72992 12.5134C7.21805 12.73 6.81445 13.045 6.51914 13.4584C6.24352 13.8522 6.1057 14.3247 6.1057 14.8759C6.1057 15.4862 6.30258 16.0277 6.69633 16.5002C7.09008 16.953 7.69055 17.3073 8.49773 17.5633L12.5435 18.8331C14.2957 19.4041 15.6049 20.1916 16.4712 21.1956C17.3571 22.1997 17.8001 23.44 17.8001 24.9166C17.8001 26.1766 17.4752 27.2889 16.8255 28.2536C16.1759 29.2183 15.2801 29.9762 14.1382 30.5275C12.9963 31.0787 11.6674 31.3544 10.1515 31.3544ZM25.8201 31.3544C24.6979 31.3544 23.7234 31.1673 22.8965 30.7933C22.0697 30.4192 21.4298 29.8877 20.977 29.1986C20.5242 28.4898 20.2978 27.6728 20.2978 26.7475C20.2978 25.8616 20.4947 25.0741 20.8884 24.385C21.2822 23.6762 21.8925 23.0856 22.7193 22.6131C23.5462 22.1406 24.5897 21.8059 25.8497 21.6091L31.1062 20.7527V23.7058L26.5879 24.4736C25.8201 24.6114 25.2492 24.8575 24.8751 25.2119C24.5011 25.5662 24.314 26.0289 24.314 26.5998C24.314 27.1511 24.5207 27.5941 24.9342 27.9287C25.3673 28.2437 25.8989 28.4012 26.5289 28.4012C27.3361 28.4012 28.0448 28.2339 28.6551 27.8992C29.2851 27.5448 29.7675 27.0625 30.1022 26.4522C30.4565 25.8419 30.6337 25.1725 30.6337 24.4441V20.3097C30.6337 19.6206 30.3581 19.0497 29.8068 18.5969C29.2753 18.1244 28.5665 17.8881 27.6806 17.8881C26.8537 17.8881 26.1154 18.1145 25.4657 18.5673C24.8357 19.0005 24.3731 19.5812 24.0778 20.3097L20.9179 18.7741C21.2329 17.9275 21.7251 17.1991 22.3945 16.5887C23.0836 15.9587 23.8907 15.4666 24.8161 15.1122C25.7414 14.7578 26.7454 14.5806 27.8282 14.5806C29.1473 14.5806 30.3089 14.8267 31.3129 15.3189C32.317 15.7914 33.0947 16.4608 33.6459 17.327C34.2168 18.1736 34.5023 19.1678 34.5023 20.3097V31H30.8404V28.2536L31.6673 28.1945C31.2539 28.8836 30.7617 29.4644 30.1907 29.9369C29.6198 30.3897 28.9701 30.7441 28.2417 31C27.5132 31.2363 26.7061 31.3544 25.8201 31.3544ZM38.0779 31V8.64484H41.9465V31H38.0779ZM53.1374 31.3544C51.4837 31.3544 50.0367 30.9803 48.7964 30.2322C47.556 29.4841 46.5914 28.4702 45.9023 27.1905C45.2132 25.9108 44.8687 24.4933 44.8687 22.938C44.8687 21.3236 45.2132 19.8962 45.9023 18.6559C46.611 17.3959 47.5659 16.4017 48.7668 15.6733C49.9874 14.9448 51.3459 14.5806 52.8421 14.5806C54.1021 14.5806 55.2046 14.7873 56.1496 15.2008C57.1143 15.6142 57.9314 16.1852 58.6007 16.9136C59.2701 17.642 59.782 18.4787 60.1364 19.4237C60.4907 20.3491 60.6679 21.3531 60.6679 22.4359C60.6679 22.7116 60.6482 22.997 60.6089 23.2923C60.5892 23.5877 60.5399 23.8436 60.4612 24.0602H48.0581V21.107H58.2759L56.4449 22.495C56.6221 21.5894 56.5729 20.7822 56.2973 20.0734C56.0414 19.3647 55.6082 18.8036 54.9979 18.3902C54.4073 17.9767 53.6887 17.77 52.8421 17.77C52.0349 17.77 51.3164 17.9767 50.6864 18.3902C50.0564 18.7839 49.574 19.3745 49.2393 20.162C48.9243 20.9298 48.8062 21.865 48.8849 22.9675C48.8062 23.9519 48.9342 24.828 49.2689 25.5958C49.6232 26.3439 50.1351 26.9247 50.8045 27.3381C51.4935 27.7516 52.281 27.9583 53.167 27.9583C54.0529 27.9583 54.801 27.7712 55.4114 27.3972C56.0414 27.0231 56.5335 26.5211 56.8879 25.8911L60.0182 27.4267C59.7032 28.1945 59.211 28.8737 58.5417 29.4644C57.8723 30.055 57.0749 30.5177 56.1496 30.8523C55.244 31.187 54.2399 31.3544 53.1374 31.3544ZM69.7135 31.3544C68.0007 31.3544 66.5044 30.9508 65.2247 30.1436C63.9647 29.3167 63.0985 28.2044 62.626 26.8066L65.52 25.4186C65.9335 26.3242 66.5044 27.033 67.2329 27.5448C67.981 28.0567 68.8079 28.3127 69.7135 28.3127C70.4222 28.3127 70.9833 28.1552 71.3968 27.8402C71.8102 27.5252 72.0169 27.1117 72.0169 26.5998C72.0169 26.2848 71.9283 26.0289 71.7511 25.832C71.5936 25.6155 71.3672 25.4383 71.0719 25.3005C70.7963 25.143 70.4911 25.015 70.1564 24.9166L67.5282 24.1783C66.1697 23.7845 65.1361 23.1841 64.4274 22.3769C63.7383 21.5697 63.3938 20.6148 63.3938 19.5123C63.3938 18.528 63.6399 17.6716 64.1321 16.9431C64.6439 16.195 65.3429 15.6142 66.2288 15.2008C67.1344 14.7873 68.168 14.5806 69.3296 14.5806C70.8455 14.5806 72.1843 14.9448 73.3458 15.6733C74.5074 16.4017 75.3343 17.4255 75.8264 18.7445L72.8733 20.1325C72.5977 19.4041 72.135 18.8233 71.4854 18.3902C70.8357 17.957 70.1072 17.7405 69.3 17.7405C68.6504 17.7405 68.1385 17.8881 67.7644 18.1834C67.3904 18.4787 67.2033 18.8627 67.2033 19.3352C67.2033 19.6305 67.2821 19.8864 67.4396 20.103C67.5971 20.3195 67.8136 20.4967 68.0893 20.6345C68.3846 20.7723 68.7193 20.9003 69.0933 21.0184L71.6625 21.7862C72.9816 22.18 73.9955 22.7706 74.7043 23.5581C75.4327 24.3456 75.7969 25.3103 75.7969 26.4522C75.7969 27.4169 75.541 28.2733 75.0291 29.0214C74.5172 29.7498 73.8085 30.3208 72.9029 30.7342C71.9972 31.1477 70.9341 31.3544 69.7135 31.3544Z" fill="#101828"/>
<rect x="81.8101" width="53" height="38" rx="8" fill="#155DFC"/>
<path d="M94.7845 26V12.59H96.5485V18.566H103.263V12.59H105.045V26H103.263V20.186H96.5485V26H94.7845ZM114.429 26.216C113.481 26.216 112.593 26.048 111.765 25.712C110.937 25.364 110.211 24.878 109.587 24.254C108.975 23.63 108.495 22.898 108.147 22.058C107.799 21.206 107.625 20.282 107.625 19.286C107.625 18.278 107.799 17.354 108.147 16.514C108.495 15.674 108.975 14.942 109.587 14.318C110.211 13.694 110.931 13.214 111.747 12.878C112.575 12.542 113.469 12.374 114.429 12.374C115.389 12.374 116.277 12.548 117.093 12.896C117.921 13.232 118.641 13.712 119.253 14.336C119.877 14.948 120.363 15.674 120.711 16.514C121.071 17.354 121.251 18.278 121.251 19.286C121.251 20.282 121.071 21.206 120.711 22.058C120.363 22.898 119.877 23.63 119.253 24.254C118.641 24.878 117.921 25.364 117.093 25.712C116.277 26.048 115.389 26.216 114.429 26.216ZM114.429 24.578C115.173 24.578 115.851 24.446 116.463 24.182C117.075 23.906 117.603 23.528 118.047 23.048C118.503 22.556 118.851 21.992 119.091 21.356C119.343 20.708 119.469 20.018 119.469 19.286C119.469 18.554 119.343 17.87 119.091 17.234C118.851 16.598 118.503 16.04 118.047 15.56C117.603 15.068 117.075 14.69 116.463 14.426C115.851 14.15 115.173 14.012 114.429 14.012C113.697 14.012 113.025 14.15 112.413 14.426C111.801 14.69 111.267 15.068 110.811 15.56C110.367 16.04 110.019 16.598 109.767 17.234C109.515 17.87 109.389 18.554 109.389 19.286C109.389 20.018 109.515 20.708 109.767 21.356C110.019 21.992 110.367 22.556 110.811 23.048C111.267 23.528 111.801 23.906 112.413 24.182C113.025 24.446 113.697 24.578 114.429 24.578ZM118.047 27.62L113.475 20.636H115.419L120.009 27.62H118.047Z" fill="white"/>
</svg>
